# xmcd
#
# Track frame offsets:
#	150
#	17229
#	33053
#	51217
#	68258
#	86638
#	105345
#	123947
#	140496
#	159367
#	170811
#	189539
#
# Disc length: 2771 seconds
#
# Revision: 1
# Processed by: cddbd v1.5.2PL0 Copyright (c) Steve Scherf et al.
# Submitted via: audiograbber 1.83.01
#
DISCID=920ad10c
DTITLE=Kikka Laitinen - Suomalaisia Rakkaustarinoita
DYEAR=2006
DGENRE=Pop
TTITLE0=Onni On Pieniss‰ Asioissa
TTITLE1=Kaukana Kavala Maa
TTITLE2=Siipirikot
TTITLE3=Ei Surullista
TTITLE4=Tatuoitu Neitoperhonen
TTITLE5=Minne Rakkaus P‰‰tyy?
TTITLE6=En En‰‰ Aamuun
TTITLE7=Talvi Tulee
TTITLE8=Kuin Viski Tyhj‰‰n Vatsaan
TTITLE9=Kallisarvoinen
TTITLE10=Kun Meit‰ Ei Ole En‰‰
TTITLE11=Maa Liikkuu Kuin Pilvet
EXTD=TR.
EXTT0=
EXTT1=
EXTT2=
EXTT3=
EXTT4=
EXTT5=
EXTT6=
EXTT7=
EXTT8=
EXTT9=
EXTT10=
EXTT11=
PLAYORDER=
